<?xml version="1.0" standalone="no"?>
<!DOCTYPE svg PUBLIC "-//W3C//DTD SVG 1.1//EN" "http://www.w3.org/Graphics/SVG/1.1/DTD/svg11.dtd">
<svg width="64mm" height="90mm" viewBox="-32 -45 64 90" xmlns="http://www.w3.org/2000/svg" version="1.1">
<title>OpenSCAD Model</title>
<path d="
M -32,35.3629 L -31.9734,36.0728 L -31.8939,36.7787 L -31.7618,37.4768 L -31.5779,38.163 L -31.3433,38.8336
 L -31.0592,39.4847 L -30.7272,40.1129 L -30.3493,40.7144 L -29.9274,41.286 L -29.464,41.8245 L -28.9616,42.3268
 L -28.4231,42.7903 L -27.8515,43.2121 L -27.25,43.5901 L -26.6219,43.9221 L -25.9707,44.2061 L -25.3002,44.4408
 L -24.6139,44.6247 L -23.9159,44.7567 L -23.2099,44.8363 L -22.5,44.8629 L 22.5,44.8629 L 23.2099,44.8363
 L 23.9159,44.7567 L 24.6139,44.6247 L 25.3002,44.4408 L 25.9707,44.2061 L 26.6219,43.9221 L 27.25,43.5901
 L 27.8515,43.2121 L 28.4231,42.7903 L 28.9616,42.3268 L 29.464,41.8245 L 29.9274,41.286 L 30.3493,40.7144
 L 30.7272,40.1129 L 31.0592,39.4847 L 31.3433,38.8336 L 31.5779,38.163 L 31.7618,37.4768 L 31.8939,36.7787
 L 31.9734,36.0728 L 32,35.3629 L 32,-35.3628 L 31.9734,-36.0728 L 31.8939,-36.7787 L 31.7618,-37.4768
 L 31.5779,-38.163 L 31.3433,-38.8336 L 31.0592,-39.4847 L 30.7272,-40.1129 L 30.3493,-40.7144 L 29.9274,-41.286
 L 29.464,-41.8245 L 28.9616,-42.3268 L 28.4231,-42.7903 L 27.8515,-43.2121 L 27.25,-43.5901 L 26.6219,-43.922
 L 25.9707,-44.2061 L 25.3002,-44.4408 L 24.6139,-44.6247 L 23.9159,-44.7567 L 23.2099,-44.8363 L 22.5,-44.8628
 L -22.5,-44.8628 L -23.2099,-44.8363 L -23.9159,-44.7567 L -24.6139,-44.6247 L -25.3002,-44.4408 L -25.9707,-44.2061
 L -26.6219,-43.922 L -27.25,-43.5901 L -27.8515,-43.2121 L -28.4231,-42.7903 L -28.9616,-42.3268 L -29.464,-41.8245
 L -29.9274,-41.286 L -30.3493,-40.7144 L -30.7272,-40.1129 L -31.0592,-39.4847 L -31.3433,-38.8336 L -31.5779,-38.163
 L -31.7618,-37.4768 L -31.8939,-36.7787 L -31.9734,-36.0728 L -32,-35.3628 z
" stroke="black" fill="lightgray" stroke-width="0.5"/>
</svg>
